<svg xmlns="http://www.w3.org/2000/svg" id="fabelio_logo_2" width="153.143" height="48" viewBox="0 0 153.143 48">
    <defs>
        <style>
            .cls-1{fill:#131313}.cls-2{fill:none}
        </style>
    </defs>
    <g id="Layer_1" data-name="Layer 1">
        <path id="Path_1184" d="M5.578 17.851H1.2a13.66 13.66 0 0 1 0-4.6h5.32a4.14 4.14 0 0 1-2.56-3.86c0-3.48 3.16-5.58 8.26-5.58a15.5 15.5 0 0 1 6.66 1.4 10.58 10.58 0 0 1-.6 4.28 9.76 9.76 0 0 0-4.98-1.3c-2 0-3.2.74-3.2 2.22s1.58 2.84 4.12 2.84h4.28a12.7 12.7 0 0 1 0 4.6h-6.54v18.66a26.2 26.2 0 0 1-6.38 0z" class="cls-1" data-name="Path 1184" transform="translate(1.002 3.809)"/>
        <path id="Path_1185" d="M31.72 16.061v16a13.66 13.66 0 0 1-4.6 0l-.74-4.84a8.32 8.32 0 0 1-8.1 5.38c-4.66 0-8-2.26-8-6.6 0-5.06 4.1-6.5 8-7.2s7.1-.84 7.1-3.16c0-1.78-1.86-2.84-4.82-2.84a14.44 14.44 0 0 0-7.3 2 10.9 10.9 0 0 1-.62-4.28 16.68 16.68 0 0 1 8.7-2.32c6.74.099 10.38 2.76 10.38 7.86zm-6.38 4.42a10.12 10.12 0 0 1-4.96 1.68c-2.2.42-4 1.12-4 3.48 0 1.86 1.3 2.98 3.72 2.98 3.02 0 5.3-2 5.3-6.18z" class="cls-1" data-name="Path 1185" transform="translate(10.28 8.199)"/>
        <path id="Path_1186" d="M47.31 25.065c0 7.26-4 12.18-10 12.18a8.3 8.3 0 0 1-8.42-6.64l-.8 6.1a14 14 0 0 1-4.64 0V3.825a24.18 24.18 0 0 1 6.36 0v13.2a8.14 8.14 0 0 1 7.5-4.14c5.92 0 10 4.98 10 12.18zm-6.4 0c0-4.5-2.1-7.3-5.44-7.3s-5.64 2.84-5.64 7.3 2.24 7.32 5.64 7.32 5.44-2.8 5.44-7.32z" class="cls-1" data-name="Path 1186" transform="translate(23.45 3.615)"/>
        <path id="Path_1187" d="M60.332 21.417h-17.5c0 4 3.36 6.6 8.56 6.6a16.9 16.9 0 0 0 7.16-1.48 12 12 0 0 1 .56 4.46 20 20 0 0 1-8.36 1.62c-8.66 0-14-4.64-14-12.18a11.44 11.44 0 0 1 12-12.18c7.02 0 11.66 4.42 11.66 11.16a9.02 9.02 0 0 1-.08 2zm-5.72-3.2a5.4 5.4 0 0 0-5.72-5.36 5.8 5.8 0 0 0-6 5.36z" class="cls-1" data-name="Path 1187" transform="translate(36.728 8.243)"/>
        <path id="Path_1188" d="M50.48 29.955V3.775a24.34 24.34 0 0 1 6.38 0v26c0 1.76.74 2.6 2.46 2.6a9.38 9.38 0 0 0 2.32-.38 11.781 11.781 0 0 1 .34 4.56 18.121 18.121 0 0 1-4 .46c-4.74 0-7.5-2.26-7.5-7.06z" class="cls-1" data-name="Path 1188" transform="translate(50.48 3.565)"/>
        <path id="Path_1189" d="M58.13 3.83h5.54l.42 5.5a7.8 7.8 0 0 1-6.42 0zm-.46 9.4a24.34 24.34 0 0 1 6.38 0v23.26a26.2 26.2 0 0 1-6.38 0z" class="cls-1" data-name="Path 1189" transform="translate(57.67 3.83)"/>
        <path id="Path_1190" d="M62.783 20.263a11.26 11.26 0 0 1 12-12 11.28 11.28 0 0 1 12 12c0 7.44-4.84 12.36-12 12.36s-12-4.86-12-12.36zm17.8.14c0-4.6-2.18-7.48-5.72-7.48s-5.62 2.84-5.62 7.48 2.2 7.58 5.72 7.58 5.62-2.94 5.62-7.583z" class="cls-1" data-name="Path 1190" transform="translate(62.757 8.237)"/>
        <path id="Rectangle_392" d="M0 0h153.143v48H0z" class="cls-2" data-name="Rectangle 392"/>
    </g>
</svg>
